<svg viewBox="0 0 305.78 131.3" xmlns="http://www.w3.org/2000/svg" xmlns:xlink="http://www.w3.org/1999/xlink" id="Layer_1" overflow="hidden"><defs></defs><path d="M104 69.13C104 69.13 108.67 72.9 134.39 72.9L140.13 72.9C147.035 72.922 152.628 78.5145 152.65 85.42L152.65 107.74 116.48 107.74C109.59 107.696 104.022 102.11 104 95.22L104 85.42C103.998 84.9957 104.021 84.5716 104.07 84.15 104.021 84.5716 103.998 84.9957 104 85.42L104 69.13Z" fill="#65BE67"/><path d="M169.15 125.33C169.15 125.33 164.48 121.56 138.76 121.56L133 121.56C126.087 121.527 120.5 115.913 120.5 109L120.5 86.71 156.63 86.71C163.535 86.732 169.128 92.3245 169.15 99.23L169.15 109C169.152 109.424 169.129 109.848 169.08 110.27 169.129 109.848 169.152 109.424 169.15 109L169.15 125.29Z" fill="#65BE67"/><path d="M38.74 44.22C38.7543 46.3276 38.378 48.4196 37.63 50.39 36.9106 52.2754 35.7518 53.9621 34.25 55.31 32.519 56.8588 30.4716 58.0122 28.25 58.69 25.95 59.41 20.43 59.77 17.43 59.77L8.87 59.77 8.87 50.24 17.45 50.24C19.2245 50.3139 20.9916 49.9714 22.61 49.24 23.7407 48.6827 24.6422 47.7493 25.16 46.6 25.6836 45.4068 25.969 44.1227 26 42.82 26.05 41.37 26.08 39.75 26.08 37.97L26.08 17.9 8.87 17.9 8.87 8.67 38.74 8.67Z" fill="#2D2D73"/><path d="M83.08 59 71.25 59 71.25 54.8C69.513 56.2955 67.6225 57.6028 65.61 58.7 63.7046 59.6201 61.6049 60.0661 59.49 60 55.73 60 52.7967 58.81 50.69 56.43 48.5833 54.05 47.53 50.4867 47.53 45.74L47.53 21 59.42 21 59.42 39.86C59.42 41.82 59.47 43.42 59.57 44.66 59.6396 45.7396 59.8862 46.8004 60.3 47.8 60.6471 48.5723 61.2466 49.2036 62 49.59 62.9884 50.0463 64.0728 50.2556 65.16 50.2 66.1877 50.1711 67.2026 49.9647 68.16 49.59 69.2875 49.1956 70.3519 48.6398 71.32 47.94L71.32 21 83.08 21Z" fill="#2D2D73"/><path d="M127.68 59 115.79 59 115.79 40.17C115.79 38.63 115.73 37.11 115.6 35.59 115.561 34.4391 115.328 33.3031 114.91 32.23 114.556 31.4279 113.933 30.7738 113.15 30.38 112.18 29.972 111.131 29.7842 110.08 29.83 109.076 29.8362 108.081 30.019 107.14 30.37 106.024 30.8066 104.969 31.3846 104 32.09L104 59 92.13 59 92.13 21 104 21 104 25.19C105.73 23.6899 107.629 22.3977 109.66 21.34 111.554 20.3986 113.645 19.9221 115.76 19.95 119.64 19.95 122.603 21.1733 124.65 23.62 126.697 26.0667 127.72 29.61 127.72 34.25Z" fill="#2D2D73"/><path d="M148.6 15.63 136.1 15.63 136.1 6.41 148.6 6.41ZM148.26 59 136.44 59 136.44 21 148.26 21Z" fill="#2D2D73"/><path d="M194.53 39.49C194.53 45.55 192.99 50.44 189.91 54.16 187.202 57.6958 182.993 59.7576 178.54 59.73 176.874 59.7623 175.213 59.5466 173.61 59.09 172.054 58.5904 170.558 57.9196 169.15 57.09L169.15 72.91 157.32 72.91 157.32 21 169.15 21 169.15 25C170.769 23.5931 172.548 22.3814 174.45 21.39 176.391 20.4314 178.535 19.9547 180.7 20 184.786 19.841 188.657 21.828 190.91 25.24 193.317 28.72 194.523 33.47 194.53 39.49ZM182.43 39.73C182.43 36.03 181.86 33.3633 180.72 31.73 179.504 30.0256 177.488 29.0781 175.4 29.23 174.326 29.2325 173.26 29.4046 172.24 29.74 171.146 30.1034 170.106 30.6149 169.15 31.26L169.15 50.3C169.815 50.5836 170.514 50.7786 171.23 50.88 172.118 51.0006 173.014 51.0574 173.91 51.05 176.803 51.05 178.943 50.11 180.33 48.23 181.73 46.35 182.43 43.51 182.43 39.73Z" fill="#2D2D73"/><path d="M222.31 60C215.15 60 209.66 58.29 205.84 54.87 202.02 51.45 200.11 46.57 200.11 40.23 200.11 34.0433 201.89 29.1 205.45 25.4 209.01 21.7 213.987 19.8533 220.38 19.86 226.2 19.86 230.57 21.4233 233.49 24.55 236.41 27.6767 237.877 32.16 237.89 38L237.89 42.26 212 42.26C212.051 43.7924 212.429 45.2961 213.11 46.67 213.697 47.8026 214.556 48.7716 215.61 49.49 216.678 50.21 217.872 50.7223 219.13 51 220.586 51.3108 222.071 51.4617 223.56 51.45 224.926 51.4508 226.288 51.2999 227.62 51 228.868 50.7149 230.087 50.3131 231.26 49.8 232.203 49.3974 233.118 48.933 234 48.41 234.689 48.0042 235.356 47.5636 236 47.09L237.25 47.09 237.25 56.86 234.6 57.92C233.526 58.3328 232.423 58.6671 231.3 58.92 229.983 59.2636 228.648 59.5307 227.3 59.72 225.645 59.9261 223.978 60.0196 222.31 60ZM226.23 35.13C226.306 33.0855 225.693 31.0746 224.49 29.42 223.218 28.0228 221.375 27.2858 219.49 27.42 217.482 27.3089 215.522 28.058 214.1 29.48 212.737 31.0331 211.978 33.024 211.96 35.09Z" fill="#2D2D73"/><path d="M270.45 32.23 269.45 32.23C268.8 32.0305 268.129 31.9097 267.45 31.87 266.59 31.79 265.65 31.75 264.61 31.75 263.292 31.7606 261.981 31.9421 260.71 32.29 259.353 32.6435 258.018 33.0742 256.71 33.58L256.71 59 245 59 245 21 256.8 21 256.8 26.44C257.34 25.94 258.09 25.32 259.05 24.57 259.874 23.9023 260.746 23.2973 261.66 22.76 262.605 22.1999 263.612 21.7503 264.66 21.42 265.697 21.0648 266.784 20.8758 267.88 20.86 268.27 20.86 268.69 20.86 269.17 20.86 269.65 20.86 270.07 20.86 270.45 20.96Z" fill="#2D2D73"/><path d="M299.84 106.08C299.84 106.08 299.84 105.97 299.84 105.92L299.84 105.92C299.661 97.3529 292.669 90.499 284.1 90.49L281.54 90.49C279.577 90.5942 277.901 89.087 277.796 87.1236 277.692 85.1602 279.199 83.4842 281.163 83.38 281.288 83.3733 281.414 83.3733 281.54 83.38L298.11 83.38 298.11 71.38 281.54 71.38C272.998 71.3936 266.021 78.2103 265.81 86.75L265.81 86.75 265.81 87.12 265.81 87.12C266.021 95.6597 272.998 102.476 281.54 102.49L284.1 102.49C286.083 102.49 287.69 104.097 287.69 106.08 287.69 108.063 286.083 109.67 284.1 109.67L266.7 109.67 266.7 121.67 284.1 121.67C292.665 121.656 299.651 114.803 299.83 106.24L299.83 106.24C299.85 106.18 299.84 106.13 299.84 106.08Z" fill="#65BE67"/><path d="M177.83 89.72 177.83 103.27C177.841 113.334 185.996 121.489 196.06 121.5L214.73 121.5 214.73 109.5 196.06 109.5C192.622 109.494 189.836 106.708 189.83 103.27L189.83 89.72C189.836 86.2815 192.622 83.4955 196.06 83.49L214.73 83.49 214.73 71.49 196.06 71.49C185.996 71.501 177.841 79.6564 177.83 89.72Z" fill="#65BE67"/><path d="M241.38 71.49 222.49 71.49 222.49 121.49 241.38 121.49C251.445 121.479 259.603 113.325 259.62 103.26L259.62 89.72C259.603 79.6548 251.445 71.501 241.38 71.49ZM247.62 103.27C247.614 106.712 244.822 109.5 241.38 109.5L234.49 109.5 234.49 83.5 241.38 83.5C244.822 83.5 247.614 86.2877 247.62 89.73L247.62 103.28Z" fill="#65BE67"/></svg>