<svg width="208" height="48" viewBox="0 0 208 48" fill="none" xmlns="http://www.w3.org/2000/svg">
<path fill-rule="evenodd" clip-rule="evenodd" d="M156.174 28.5219C155.862 27.24 154.404 26.4869 152.916 26.8408C151.428 27.1947 150.475 28.5209 150.785 29.8028C151.096 31.0847 152.555 31.8378 154.043 31.4838C155.532 31.1299 156.485 29.8038 156.174 28.5219Z" fill="
#4D5460"/>
<path d="M82.194 21.1839C82.441 21.1839 82.6491 21.2738 82.8181 21.4537C83.0002 21.6207 83.0912 21.8391 83.0912 22.1089C83.0912 22.1989 83.0652 22.3209 83.0132 22.4751L80.0289 30.8002C79.9509 31.0058 79.8208 31.16 79.6388 31.2627C79.4567 31.3655 79.2617 31.4041 79.0536 31.3784C78.7025 31.3527 78.436 31.16 78.2539 30.8002L76.2254 25.5585L74.3529 30.8002C74.2749 30.9801 74.1643 31.1214 74.0213 31.2242C73.8783 31.3141 73.7222 31.3655 73.5532 31.3784C73.3581 31.4041 73.1631 31.3655 72.968 31.2627C72.786 31.1471 72.6625 30.993 72.5974 30.8002L69.5741 22.4751C69.5351 22.3594 69.5156 22.2374 69.5156 22.1089C69.5156 21.852 69.6001 21.6336 69.7692 21.4537C69.9382 21.2738 70.1593 21.1839 70.4324 21.1839C70.8745 21.1839 71.1606 21.3766 71.2906 21.762L73.6117 28.2564L75.4647 23.4579C75.6207 23.0725 75.9068 22.8798 76.3229 22.8798C76.713 22.8798 76.9796 23.0725 77.1226 23.4579L79.0146 28.1794L81.2967 21.762C81.4398 21.3766 81.7388 21.1839 82.194 21.1839Z" fill="
#4D5460"/>
<path d="M90.186 21.1068C92.4746 21.1068 93.6189 22.5072 93.6189 25.3079V30.4534C93.6189 30.7103 93.5279 30.9287 93.3459 31.1086C93.1768 31.2884 92.9558 31.3784 92.6827 31.3784C92.4226 31.3784 92.2016 31.2884 92.0195 31.1086C91.8505 30.9287 91.766 30.7103 91.766 30.4534V25.3079C91.766 23.6378 91.0508 22.8027 89.6204 22.8027C88.8532 22.8027 88.216 23.0468 87.7089 23.535C87.2018 24.0103 86.9482 24.6013 86.9482 25.3079V30.4534C86.9482 30.7103 86.8572 30.9287 86.6751 31.1086C86.5061 31.2884 86.285 31.3784 86.0119 31.3784C85.7389 31.3784 85.5178 31.2949 85.3488 31.1279C85.1797 30.948 85.0952 30.7232 85.0952 30.4534V18.0427C85.0952 17.7857 85.1797 17.5673 85.3488 17.3875C85.5308 17.2076 85.7519 17.1177 86.0119 17.1177C86.285 17.1177 86.5061 17.2076 86.6751 17.3875C86.8572 17.5673 86.9482 17.7857 86.9482 18.0427V22.9183C87.2733 22.4173 87.7284 21.9933 88.3136 21.6464C88.8987 21.2867 89.5229 21.1068 90.186 21.1068Z" fill="#4D5460"/>
<path d="M98.1461 30.4534C98.1461 30.7103 98.0551 30.9287 97.873 31.1086C97.704 31.2884 97.4829 31.3784 97.2099 31.3784C96.9498 31.3784 96.7287 31.2884 96.5467 31.1086C96.3777 30.9287 96.2931 30.7103 96.2931 30.4534V22.1089C96.2931 21.852 96.3777 21.6336 96.5467 21.4537C96.7287 21.2738 96.9498 21.1839 97.2099 21.1839C97.4829 21.1839 97.704 21.2738 97.873 21.4537C98.0551 21.6336 98.1461 21.852 98.1461 22.1089V30.4534ZM97.2099 19.912C96.8328 19.912 96.5597 19.8478 96.3907 19.7193C96.2346 19.578 96.1566 19.3596 96.1566 19.0641V18.7557C96.1566 18.4474 96.2411 18.229 96.4102 18.1005C96.5922 17.972 96.8653 17.9078 97.2294 17.9078C97.5935 17.9078 97.8535 17.9785 98.0096 18.1198C98.1786 18.2483 98.2632 18.4602 98.2632 18.7557V19.0641C98.2632 19.3724 98.1786 19.5908 98.0096 19.7193C97.8405 19.8478 97.574 19.912 97.2099 19.912Z" fill="#4D5460"/>
<path d="M103.58 23.0725V28.8153C103.58 29.4577 103.872 29.7789 104.457 29.7789C104.548 29.7789 104.672 29.7596 104.828 29.7211C104.984 29.6697 105.107 29.644 105.198 29.644C105.367 29.644 105.511 29.7146 105.628 29.856C105.745 29.9973 105.803 30.1771 105.803 30.3955C105.803 30.6653 105.647 30.8966 105.335 31.0893C105.023 31.282 104.672 31.3784 104.282 31.3784C103.853 31.3784 103.456 31.3334 103.092 31.2435C102.741 31.1535 102.422 30.9287 102.136 30.569C101.863 30.1964 101.727 29.6375 101.727 28.8924V23.0725H100.595C100.348 23.0725 100.14 22.9954 99.9711 22.8412C99.815 22.6742 99.737 22.4687 99.737 22.2245C99.737 21.9804 99.815 21.7813 99.9711 21.6271C100.14 21.473 100.348 21.3959 100.595 21.3959H101.727V19.7771C101.727 19.5202 101.811 19.3017 101.98 19.1219C102.162 18.942 102.39 18.8521 102.663 18.8521C102.923 18.8521 103.137 18.942 103.306 19.1219C103.488 19.3017 103.58 19.5202 103.58 19.7771V21.3959H105.198C105.446 21.3959 105.647 21.4794 105.803 21.6464C105.972 21.8006 106.057 21.9997 106.057 22.2438C106.057 22.4879 105.972 22.6871 105.803 22.8412C105.647 22.9954 105.446 23.0725 105.198 23.0725H103.58Z" fill="#4D5460"/>
<path d="M117.097 25.9439C117.084 26.1751 116.986 26.3743 116.804 26.5413C116.622 26.6955 116.407 26.7726 116.16 26.7726H109.295C109.386 27.7104 109.743 28.462 110.367 29.0273C111.004 29.5926 111.778 29.8752 112.688 29.8752C113.313 29.8752 113.82 29.7853 114.21 29.6054C114.6 29.4256 114.945 29.1943 115.244 28.9117C115.439 28.796 115.627 28.7382 115.809 28.7382C116.03 28.7382 116.212 28.8153 116.355 28.9695C116.511 29.1236 116.589 29.3035 116.589 29.5091C116.589 29.7789 116.459 30.023 116.199 30.2414C115.822 30.614 115.322 30.9287 114.697 31.1857C114.073 31.4426 113.436 31.5711 112.786 31.5711C111.733 31.5711 110.803 31.3527 109.997 30.9159C109.203 30.4791 108.586 29.8688 108.144 29.0851C107.715 28.3014 107.5 27.4149 107.5 26.4257C107.5 25.3465 107.721 24.4022 108.163 23.5928C108.618 22.7706 109.21 22.141 109.938 21.7042C110.679 21.2674 111.473 21.049 112.318 21.049C113.15 21.049 113.93 21.261 114.658 21.685C115.387 22.1089 115.972 22.6935 116.414 23.4386C116.856 24.1838 117.084 25.0189 117.097 25.9439ZM112.318 22.7449C111.59 22.7449 110.959 22.9504 110.426 23.3616C109.893 23.7598 109.542 24.3829 109.373 25.2309H115.127V25.0767C115.062 24.3958 114.749 23.8369 114.19 23.4001C113.644 22.9633 113.02 22.7449 112.318 22.7449Z" fill="#4D5460"/>
<path d="M123.617 18.775C123.188 18.775 122.87 18.9035 122.662 19.1604C122.467 19.4174 122.369 19.7321 122.369 20.1047V21.4537H124.3C124.56 21.4537 124.768 21.5372 124.924 21.7042C125.093 21.8584 125.178 22.0575 125.178 22.3016C125.178 22.5457 125.093 22.7449 124.924 22.899C124.768 23.0532 124.56 23.1303 124.3 23.1303H122.369V30.4534C122.369 30.7103 122.278 30.9287 122.096 31.1086C121.927 31.2884 121.706 31.3784 121.433 31.3784C121.173 31.3784 120.952 31.2884 120.77 31.1086C120.601 30.9287 120.516 30.7103 120.516 30.4534V23.1303H119.307C119.06 23.1303 118.852 23.0532 118.683 22.899C118.514 22.7449 118.429 22.5457 118.429 22.3016C118.429 22.0575 118.514 21.8584 118.683 21.7042C118.852 21.5372 119.06 21.4537 119.307 21.4537H120.516V20.1047C120.516 19.2054 120.809 18.4924 121.394 17.9656C121.979 17.426 122.805 17.1562 123.871 17.1562C124.313 17.1562 124.703 17.2397 125.041 17.4067C125.379 17.5609 125.548 17.7986 125.548 18.1198C125.548 18.3639 125.47 18.5694 125.314 18.7365C125.171 18.8906 124.996 18.9677 124.788 18.9677C124.736 18.9677 124.593 18.942 124.359 18.8906C124.073 18.8135 123.825 18.775 123.617 18.775Z" fill="#4D5460"/>
<path d="M136.523 26.3293C136.523 27.3314 136.295 28.2307 135.84 29.0273C135.385 29.8238 134.761 30.4469 133.968 30.8966C133.188 31.3463 132.323 31.5711 131.374 31.5711C130.424 31.5711 129.553 31.3463 128.76 30.8966C127.98 30.4469 127.362 29.8238 126.907 29.0273C126.452 28.2307 126.224 27.3314 126.224 26.3293C126.224 25.3272 126.452 24.4215 126.907 23.6121C127.362 22.8027 127.98 22.1732 128.76 21.7235C129.553 21.2738 130.424 21.049 131.374 21.049C132.323 21.049 133.188 21.2738 133.968 21.7235C134.761 22.1732 135.385 22.8027 135.84 23.6121C136.295 24.4215 136.523 25.3272 136.523 26.3293ZM134.67 26.3293C134.67 25.6356 134.52 25.0189 134.221 24.4793C133.935 23.9268 133.539 23.5029 133.032 23.2074C132.537 22.899 131.985 22.7449 131.374 22.7449C130.762 22.7449 130.203 22.899 129.696 23.2074C129.202 23.5029 128.805 23.9268 128.506 24.4793C128.22 25.0189 128.077 25.6356 128.077 26.3293C128.077 27.0102 128.22 27.6205 128.506 28.1601C128.805 28.6997 129.202 29.1236 129.696 29.432C130.203 29.7275 130.762 29.8752 131.374 29.8752C131.985 29.8752 132.537 29.7275 133.032 29.432C133.539 29.1236 133.935 28.6997 134.221 28.1601C134.52 27.6205 134.67 27.0102 134.67 26.3293Z" fill="#4D5460"/>
<path d="M146.013 29.9523C146.156 30.1065 146.228 30.2863 146.228 30.4919C146.228 30.7489 146.13 30.9737 145.935 31.1664C145.74 31.3463 145.526 31.4362 145.292 31.4362C144.993 31.4362 144.739 31.3013 144.531 31.0315L141.917 27.7747L139.343 31.0315C139.252 31.16 139.141 31.2563 139.011 31.3206C138.881 31.3848 138.744 31.4169 138.601 31.4169C138.38 31.4169 138.172 31.3398 137.977 31.1857C137.795 31.0186 137.704 30.8259 137.704 30.6075C137.704 30.3763 137.776 30.1836 137.919 30.0294L140.845 26.4257L137.841 22.6871C137.711 22.52 137.646 22.3402 137.646 22.1475C137.646 21.8905 137.737 21.6721 137.919 21.4922C138.114 21.3124 138.335 21.2224 138.582 21.2224C138.894 21.2224 139.148 21.3509 139.343 21.6079L142.015 24.9418L144.531 21.6271C144.726 21.3573 144.973 21.2224 145.272 21.2224C145.519 21.2224 145.727 21.306 145.896 21.473C146.065 21.6271 146.15 21.8134 146.15 22.0318C146.15 22.2759 146.078 22.4751 145.935 22.6292L143.049 26.233L146.013 29.9523Z" fill="#4D5460"/>
<path d="M165.171 21.049C166.198 21.049 167.05 21.2096 167.726 21.5308C168.415 21.852 168.759 22.2631 168.759 22.7641C168.759 22.9825 168.688 23.1817 168.545 23.3616C168.402 23.5286 168.22 23.6121 167.999 23.6121C167.83 23.6121 167.693 23.5864 167.589 23.535C167.498 23.4836 167.368 23.4001 167.199 23.2845C167.121 23.2074 166.998 23.1174 166.828 23.0147C166.672 22.9376 166.451 22.8733 166.165 22.822C165.879 22.7706 165.619 22.7449 165.385 22.7449C164.709 22.7449 164.111 22.899 163.591 23.2074C163.07 23.5157 162.667 23.9461 162.381 24.4986C162.095 25.0381 161.952 25.642 161.952 26.31C161.952 26.991 162.089 27.6012 162.362 28.1408C162.648 28.6804 163.044 29.1044 163.552 29.4127C164.059 29.7211 164.637 29.8752 165.288 29.8752C165.964 29.8752 166.51 29.7724 166.926 29.5669C167.017 29.5155 167.141 29.432 167.297 29.3164C167.427 29.2136 167.537 29.1365 167.628 29.0851C167.732 29.0337 167.856 29.008 167.999 29.008C168.259 29.008 168.46 29.0915 168.603 29.2585C168.759 29.4127 168.838 29.6183 168.838 29.8752C168.838 30.145 168.662 30.4148 168.311 30.6846C167.973 30.9416 167.511 31.1535 166.926 31.3206C166.354 31.4876 165.736 31.5711 165.073 31.5711C164.085 31.5711 163.214 31.3463 162.459 30.8966C161.705 30.4341 161.12 29.8046 160.704 29.008C160.301 28.1986 160.099 27.2993 160.099 26.31C160.099 25.3208 160.314 24.4279 160.743 23.6313C161.172 22.822 161.77 22.1924 162.537 21.7428C163.305 21.2803 164.182 21.049 165.171 21.049Z" fill="#4D5460"/>
<path d="M172.752 30.4534C172.752 30.7103 172.661 30.9287 172.479 31.1086C172.297 31.2884 172.075 31.3784 171.815 31.3784C171.555 31.3784 171.334 31.2884 171.152 31.1086C170.983 30.9287 170.899 30.7103 170.899 30.4534V18.0427C170.899 17.7857 170.99 17.5673 171.172 17.3875C171.354 17.2076 171.575 17.1177 171.835 17.1177C172.095 17.1177 172.31 17.2076 172.479 17.3875C172.661 17.5673 172.752 17.7857 172.752 18.0427V30.4534Z" fill="#4D5460"/>
<path d="M185.16 26.3293C185.16 27.3314 184.933 28.2307 184.477 29.0273C184.022 29.8238 183.398 30.4469 182.605 30.8966C181.825 31.3463 180.96 31.5711 180.011 31.5711C179.061 31.5711 178.19 31.3463 177.397 30.8966C176.617 30.4469 175.999 29.8238 175.544 29.0273C175.089 28.2307 174.861 27.3314 174.861 26.3293C174.861 25.3272 175.089 24.4215 175.544 23.6121C175.999 22.8027 176.617 22.1732 177.397 21.7235C178.19 21.2738 179.061 21.049 180.011 21.049C180.96 21.049 181.825 21.2738 182.605 21.7235C183.398 22.1732 184.022 22.8027 184.477 23.6121C184.933 24.4215 185.16 25.3272 185.16 26.3293ZM183.307 26.3293C183.307 25.6356 183.158 25.0189 182.858 24.4793C182.572 23.9268 182.176 23.5029 181.669 23.2074C181.175 22.899 180.622 22.7449 180.011 22.7449C179.4 22.7449 178.84 22.899 178.333 23.2074C177.839 23.5029 177.443 23.9268 177.143 24.4793C176.857 25.0189 176.714 25.6356 176.714 26.3293C176.714 27.0102 176.857 27.6205 177.143 28.1601C177.443 28.6997 177.839 29.1236 178.333 29.432C178.84 29.7275 179.4 29.8752 180.011 29.8752C180.622 29.8752 181.175 29.7275 181.669 29.432C182.176 29.1236 182.572 28.6997 182.858 28.1601C183.158 27.6205 183.307 27.0102 183.307 26.3293Z" fill="#4D5460"/>
<path d="M194.921 21.2803C195.194 21.2803 195.415 21.3702 195.585 21.5501C195.767 21.7299 195.858 21.9483 195.858 22.2053V27.3314C195.858 28.6676 195.48 29.7082 194.726 30.4534C193.985 31.1857 192.932 31.5518 191.566 31.5518C190.214 31.5518 189.167 31.1857 188.426 30.4534C187.685 29.7082 187.314 28.6676 187.314 27.3314V22.2053C187.314 21.9483 187.399 21.7299 187.568 21.5501C187.75 21.3702 187.971 21.2803 188.231 21.2803C188.504 21.2803 188.725 21.3702 188.894 21.5501C189.076 21.7299 189.167 21.9483 189.167 22.2053V27.3314C189.167 29.0144 189.967 29.856 191.566 29.856C192.36 29.856 192.964 29.644 193.38 29.22C193.797 28.796 194.005 28.1665 194.005 27.3314V22.2053C194.005 21.9483 194.089 21.7299 194.258 21.5501C194.44 21.3702 194.661 21.2803 194.921 21.2803Z" fill="#4D5460"/>
<path d="M206.919 17.1177C207.192 17.1177 207.413 17.2076 207.582 17.3875C207.764 17.5545 207.855 17.7729 207.855 18.0427V30.4534C207.855 30.7103 207.764 30.9287 207.582 31.1086C207.413 31.2884 207.192 31.3784 206.919 31.3784C206.645 31.3784 206.424 31.2949 206.255 31.1279C206.086 30.948 206.002 30.7232 206.002 30.4534V29.9138C205.677 30.3763 205.215 30.7681 204.617 31.0893C204.032 31.4105 203.401 31.5711 202.725 31.5711C201.841 31.5711 201.041 31.3463 200.326 30.8966C199.611 30.4469 199.045 29.8238 198.629 29.0273C198.213 28.2179 198.005 27.3122 198.005 26.31C198.005 25.3079 198.206 24.4086 198.609 23.6121C199.025 22.8027 199.591 22.1732 200.306 21.7235C201.021 21.2738 201.808 21.049 202.666 21.049C203.356 21.049 203.993 21.1903 204.578 21.473C205.163 21.7556 205.638 22.1218 206.002 22.5714V18.0427C206.002 17.7729 206.086 17.5545 206.255 17.3875C206.424 17.2076 206.645 17.1177 206.919 17.1177ZM202.939 29.8752C203.551 29.8752 204.09 29.7211 204.558 29.4127C205.04 29.1044 205.41 28.6804 205.67 28.1408C205.943 27.6012 206.08 26.991 206.08 26.31C206.08 25.642 205.943 25.0381 205.67 24.4986C205.41 23.9461 205.04 23.5157 204.558 23.2074C204.09 22.899 203.551 22.7449 202.939 22.7449C202.328 22.7449 201.782 22.899 201.301 23.2074C200.833 23.5157 200.462 23.9461 200.189 24.4986C199.929 25.0381 199.799 25.642 199.799 26.31C199.799 26.991 199.929 27.6012 200.189 28.1408C200.462 28.6804 200.833 29.1044 201.301 29.4127C201.782 29.7211 202.328 29.8752 202.939 29.8752Z" fill="#4D5460"/>
<g clip-path="url(#clip0_6642_1814)">
<path fill-rule="evenodd" clip-rule="evenodd" d="M52.3746 17.7967C49.3805 5.38932 35.3781 -1.89977 21.0863 1.5257C6.79441 4.95118 -2.35756 17.7867 0.626566 30.1941C3.61069 42.6015 17.6231 49.8906 31.9149 46.4651C46.2068 43.0396 55.3587 30.2041 52.3746 17.7967Z" fill="#005DE5"/>
<path fill-rule="evenodd" clip-rule="evenodd" d="M36.1973 24.5974H43.6527L35.1993 9.95947L27.5843 18.1448L22.8536 9.95947L9.23047 24.5974H16.8055L23.9115 39.2254L36.1973 24.5974Z" fill="white"/>
</g>
<defs>
<clipPath id="clip0_6642_1814">
<rect width="52.9956" height="46.8015" fill="white" transform="translate(0 0.599121)"/>
</clipPath>
</defs>
</svg>
